<svg width="48" height="48" viewBox="0 0 48 48" fill="none" xmlns="http://www.w3.org/2000/svg">
<path d="M45.7852 35.6999C45.5123 34.9821 45.0031 34.3786 44.3415 33.9888C43.6798 33.599 42.9052 33.4462 42.1451 33.5554L31.9604 35.0637C32.0468 34.3254 31.88 33.5797 31.4873 32.9485C31.0946 32.3173 30.4993 31.8381 29.7988 31.5893L21.4166 28.8432C19.9635 28.3707 18.3975 28.3747 16.9468 28.8544L10.9281 30.8607C10.7819 30.1925 10.4119 29.5943 9.87946 29.165C9.34701 28.7358 8.68395 28.5011 8 28.4999H5C4.20462 28.5008 3.44206 28.8171 2.87964 29.3796C2.31722 29.942 2.00087 30.7045 2 31.4999V42.4999C2.00087 43.2953 2.31722 44.0578 2.87964 44.6203C3.44206 45.1827 4.20462 45.499 5 45.4999H8C8.65526 45.4978 9.29174 45.2808 9.81191 44.8823C10.3321 44.4838 10.7072 43.9258 10.8799 43.2937L15.1402 42.5838C15.6762 42.4936 16.2271 42.5764 16.7129 42.8202L21.5684 45.2483C22.4043 45.6688 23.3152 45.9194 24.2485 45.9858C25.1818 46.0522 26.119 45.9329 27.0059 45.635L43.7008 40.0695C44.1295 39.9267 44.5251 39.6988 44.8638 39.3995C45.2025 39.1003 45.4773 38.7358 45.6719 38.3279C45.8665 37.9199 45.9768 37.477 45.9963 37.0254C46.0158 36.5739 45.944 36.1231 45.7852 35.6999ZM9.00003 42.4999C8.99968 42.765 8.89421 43.0192 8.70675 43.2066C8.51928 43.3941 8.26512 43.4996 8 43.4999H5C4.73488 43.4996 4.48072 43.3941 4.29325 43.2066C4.10579 43.0192 4.00032 42.765 3.99997 42.4999V31.4999C4.00032 31.2348 4.10579 30.9807 4.29325 30.7932C4.48072 30.6057 4.73488 30.5002 5 30.4999H8C8.26512 30.5002 8.51928 30.6057 8.70675 30.7932C8.89421 30.9807 8.99968 31.2348 9.00003 31.4999V42.4999ZM43.8667 37.4662C43.7884 37.6318 43.6772 37.7798 43.5398 37.9011C43.4025 38.0224 43.2419 38.1145 43.0678 38.1717L26.3736 43.7372C25.7357 43.9518 25.0616 44.0377 24.3904 43.9899C23.7191 43.9421 23.0639 43.7616 22.4629 43.4589L17.6074 41.0307C16.7439 40.5968 15.7644 40.4497 14.8115 40.6108L11 41.2459V32.9449L17.5796 30.7518C18.6225 30.4063 19.7487 30.4034 20.7934 30.7435L29.1455 33.4793C29.4491 33.5895 29.7003 33.8098 29.8492 34.0964C29.9981 34.383 30.0339 34.7152 29.9495 35.027C29.8651 35.3388 29.6667 35.6075 29.3935 35.7799C29.1204 35.9523 28.7924 36.0158 28.4746 35.9578L19.3614 34.3012C19.1014 34.2561 18.8341 34.3155 18.6178 34.4666C18.4015 34.6177 18.2536 34.8482 18.2065 35.1078C18.1593 35.3674 18.2167 35.6351 18.3661 35.8527C18.5155 36.0702 18.7448 36.2198 19.004 36.269L28.1165 37.9257C28.5756 38.0096 29.0474 37.9942 29.5 37.8805C29.9527 37.7667 30.3757 37.5574 30.7407 37.2664L42.4378 35.5337C42.7458 35.4888 43.0599 35.5504 43.3281 35.7084C43.5963 35.8664 43.8024 36.1112 43.9124 36.4024C43.9774 36.5735 44.0069 36.7561 43.999 36.939C43.9912 37.122 43.9461 37.3013 43.8667 37.4663V37.4662Z" fill="#000034"/>
<path d="M24.2504 16.7467C24.3798 16.796 24.498 16.8404 24.5962 16.8836C24.7392 16.9464 24.9038 17.0098 25.0806 17.0775C26.0621 17.4525 26.5001 17.6998 26.5001 18.1744C26.5001 18.3821 26.2783 18.7046 25.8551 18.919C25.5551 19.0706 24.4722 19.4859 23.0923 18.4718C22.8787 18.3147 22.6113 18.2489 22.3492 18.2889C22.087 18.329 21.8515 18.4715 21.6944 18.6852C21.5373 18.8989 21.4716 19.1662 21.5116 19.4284C21.5516 19.6905 21.6941 19.9261 21.9078 20.0831C22.5288 20.5463 23.2424 20.87 23.9999 21.0323V21.9998C24.0025 22.2633 24.109 22.5152 24.2962 22.7006C24.4835 22.8861 24.7364 22.9901 24.9999 22.9901C25.2635 22.9901 25.5164 22.8861 25.7036 22.7006C25.8909 22.5152 25.9974 22.2633 25.9999 21.9998V20.9798C26.2612 20.9135 26.5151 20.821 26.7577 20.7037C27.8324 20.16 28.4999 19.1904 28.4999 18.1744C28.4999 16.2431 26.7397 15.5704 25.7938 15.2091C25.6517 15.1546 25.5185 15.1044 25.4037 15.0538C25.2778 14.9981 25.1269 14.9403 24.9604 14.8771C24.0135 14.5175 23.5 14.2333 23.5 13.7629C23.5 13.5551 23.7217 13.2326 24.145 13.0182C24.445 12.8666 25.5278 12.4513 26.9077 13.4655C27.1215 13.6206 27.3879 13.6848 27.6489 13.6442C27.9098 13.6035 28.1441 13.4612 28.3005 13.2484C28.457 13.0356 28.5229 12.7696 28.4838 12.5084C28.4448 12.2472 28.304 12.012 28.0922 11.8542C27.4711 11.3911 26.7575 11.0674 25.9999 10.9052V9.99995C26.0012 9.86781 25.9763 9.73674 25.9266 9.61429C25.8769 9.49184 25.8035 9.38046 25.7105 9.28657C25.6175 9.19268 25.5068 9.11815 25.3849 9.06729C25.2629 9.01642 25.1321 8.99023 24.9999 8.99023C24.8678 8.99023 24.737 9.01642 24.615 9.06729C24.493 9.11815 24.3824 9.19268 24.2894 9.28657C24.1964 9.38046 24.1229 9.49184 24.0733 9.61429C24.0236 9.73674 23.9987 9.86781 23.9999 9.99995V10.9524C23.7385 11.0203 23.4846 11.1145 23.2422 11.2336C22.1674 11.7774 21.5 12.7465 21.5 13.7629C21.4999 15.7022 23.3574 16.4078 24.2504 16.7467Z" fill="#000034"/>
<path d="M25.0001 26.9999C27.1756 26.9999 29.3024 26.3548 31.1113 25.1461C32.9202 23.9374 34.3301 22.2194 35.1626 20.2094C35.9952 18.1994 36.213 15.9877 35.7886 13.8539C35.3641 11.7201 34.3165 9.76015 32.7781 8.22179C31.2397 6.68342 29.2797 5.63579 27.1459 5.21136C25.0121 4.78693 22.8004 5.00477 20.7904 5.83734C18.7805 6.6699 17.0625 8.0798 15.8538 9.88873C14.6451 11.6977 14 13.8244 14 16C14.0033 18.9164 15.1633 21.7123 17.2255 23.7745C19.2877 25.8367 22.0837 26.9967 25.0001 26.9999ZM25.0001 6.99997C26.7801 6.99997 28.5202 7.52781 30.0002 8.51675C31.4802 9.50568 32.6338 10.9113 33.315 12.5558C33.9962 14.2004 34.1744 16.01 33.8271 17.7558C33.4799 19.5016 32.6227 21.1053 31.364 22.3639C30.1054 23.6226 28.5017 24.4798 26.7559 24.827C25.01 25.1743 23.2004 24.9961 21.5559 24.3149C19.9114 23.6337 18.5058 22.4801 17.5168 21.0001C16.5279 19.5201 16.0001 17.78 16.0001 16C16.0028 13.6139 16.9519 11.3263 18.6391 9.63903C20.3264 7.95179 22.614 7.0027 25.0001 6.99997Z" fill="#000034"/>
<path d="M40.2933 30.707C40.3861 30.7999 40.4963 30.8736 40.6176 30.9238C40.7389 30.9741 40.869 31 41.0003 31C41.1316 31 41.2616 30.9741 41.3829 30.9238C41.5042 30.8736 41.6145 30.7999 41.7073 30.707L44.7073 27.707C44.8912 27.5188 44.9936 27.2656 44.992 27.0024C44.9905 26.7392 44.8853 26.4872 44.6992 26.3011C44.5131 26.115 44.2611 26.0097 43.9979 26.0082C43.7347 26.0067 43.4815 26.109 43.2933 26.293L42.0003 27.5859V17.9999C42.0015 17.8678 41.9766 17.7367 41.9269 17.6143C41.8773 17.4918 41.8038 17.3805 41.7108 17.2866C41.6178 17.1927 41.5072 17.1181 41.3852 17.0673C41.2632 17.0164 41.1324 16.9902 41.0003 16.9902C40.8681 16.9902 40.7373 17.0164 40.6153 17.0673C40.4934 17.1181 40.3827 17.1927 40.2897 17.2866C40.1967 17.3805 40.1233 17.4918 40.0736 17.6143C40.0239 17.7367 39.999 17.8678 40.0003 17.9999V27.5859L38.7073 26.2929C38.6148 26.1983 38.5045 26.1229 38.3828 26.0713C38.261 26.0196 38.1302 25.9926 37.9979 25.9918C37.8656 25.9911 37.7345 26.0166 37.6121 26.0668C37.4898 26.1171 37.3786 26.1911 37.2851 26.2847C37.1915 26.3782 37.1175 26.4894 37.0672 26.6118C37.0169 26.7341 36.9914 26.8652 36.9922 26.9975C36.993 27.1298 37.02 27.2606 37.0716 27.3824C37.1233 27.5042 37.1986 27.6145 37.2933 27.7069L40.2933 30.707Z" fill="#000034"/>
<path d="M38.9999 10.0001C39.2652 10.0001 39.5195 9.89478 39.7071 9.70724C39.8946 9.5197 40 9.26534 40 9.00011V3.00011C39.9974 2.73658 39.8909 2.4847 39.7037 2.29925C39.5164 2.1138 39.2635 2.00977 39 2.00977C38.7364 2.00977 38.4835 2.1138 38.2963 2.29925C38.109 2.4847 38.0026 2.73658 38 3.00011V9.00011C38 9.26532 38.1053 9.51967 38.2929 9.70721C38.4804 9.89475 38.7347 10.0001 38.9999 10.0001Z" fill="#000034"/>
<path d="M43 14C43.2652 14 43.5196 13.8946 43.7071 13.7071C43.8947 13.5195 44 13.2652 44 12.9999V6.99995C44.0013 6.86781 43.9764 6.73674 43.9267 6.61429C43.877 6.49184 43.8036 6.38046 43.7106 6.28657C43.6176 6.19268 43.5069 6.11815 43.385 6.06729C43.263 6.01642 43.1322 5.99023 43 5.99023C42.8679 5.99023 42.7371 6.01642 42.6151 6.06729C42.4931 6.11815 42.3825 6.19268 42.2895 6.28657C42.1965 6.38046 42.123 6.49184 42.0734 6.61429C42.0237 6.73674 41.9988 6.86781 42 6.99995V12.9999C42 13.2652 42.1054 13.5195 42.2929 13.707C42.4804 13.8946 42.7348 14 43 14Z" fill="#000034"/>
<path d="M9.99998 12C10.2652 12 10.5196 11.8946 10.7071 11.7071C10.8947 11.5195 11 11.2652 11 10.9999V4.99995C11.0013 4.86781 10.9764 4.73674 10.9267 4.61429C10.877 4.49184 10.8036 4.38046 10.7106 4.28657C10.6176 4.19268 10.5069 4.11815 10.385 4.06729C10.263 4.01642 10.1322 3.99023 10 3.99023C9.86789 3.99023 9.73706 4.01642 9.6151 4.06729C9.49314 4.11815 9.38247 4.19268 9.28949 4.28657C9.1965 4.38046 9.12305 4.49184 9.07337 4.61429C9.02369 4.73674 8.99877 4.86781 9.00005 4.99995V10.9999C9.00005 11.2652 9.10539 11.5195 9.29292 11.707C9.48044 11.8946 9.73478 12 9.99998 12Z" fill="#000034"/>
<path d="M5.99994 18.0001C6.26516 18.0001 6.51952 17.8948 6.70707 17.7072C6.89461 17.5197 6.99997 17.2653 6.99997 17.0001V11.0001C6.99742 10.7366 6.89094 10.4847 6.70368 10.2993C6.51643 10.1138 6.26353 10.0098 5.99998 10.0098C5.73644 10.0098 5.48354 10.1138 5.29629 10.2993C5.10903 10.4847 5.00255 10.7366 5 11.0001V17.0001C5 17.2653 5.10535 17.5197 5.29287 17.7072C5.48039 17.8947 5.73473 18.0001 5.99994 18.0001Z" fill="#000034"/>
</svg>
