<svg width="39" height="27" viewBox="0 0 39 27" fill="none" xmlns="http://www.w3.org/2000/svg">
<rect x="0.308075" width="38" height="27" rx="4" fill="white"/>
<path fill-rule="evenodd" clip-rule="evenodd" d="M24.6026 7.56C24.4767 7.56035 24.3513 7.56461 24.2278 7.57862V7.57862C23.7446 7.63332 23.29 7.87354 22.9635 8.24418V8.24418C22.7214 8.51914 22.5532 8.85965 22.4819 9.22375V9.22375C22.4467 9.4035 22.4422 9.58371 22.4422 9.76585V9.76585V10.9748V11.5609V11.7331C22.4422 11.7792 22.4315 11.7828 22.4809 11.7828V11.7828H23.254H24.0243H24.7993C25.0523 11.7828 25.3074 11.773 25.5596 11.7966V11.7966C25.8082 11.8199 26.0612 11.8928 26.2622 12.0502V12.0502C26.5448 12.2716 26.6597 12.6534 26.5631 13.0047V13.0047C26.4704 13.3419 26.1924 13.568 25.8747 13.6618V13.6618C25.8395 13.6722 25.8039 13.6812 25.768 13.6887V13.6887C25.7473 13.6932 25.7192 13.6924 25.7003 13.7014V13.7014C25.691 13.7059 25.6673 13.7114 25.6847 13.7284V13.7284C25.689 13.7327 25.7074 13.7326 25.721 13.7325V13.7325C25.7265 13.7325 25.7313 13.7325 25.734 13.7327V13.7327C25.8337 13.7426 25.9329 13.7604 26.0297 13.7876V13.7876C26.3256 13.8707 26.6128 14.0495 26.7499 14.3429V14.3429C26.9121 14.6901 26.8294 15.1202 26.5673 15.3895V15.3895C26.3608 15.6017 26.0727 15.71 25.7874 15.7459V15.7459C25.6444 15.7638 25.5003 15.7602 25.3565 15.7602V15.7602H24.5815H23.8066H23.0362H22.6487H22.5519C22.5298 15.7602 22.4673 15.7489 22.4492 15.7602V15.7602C22.4386 15.7668 22.4422 15.7764 22.4422 15.794V15.794V16.5318V17.8338V19.1494V19.9282C22.4422 19.936 22.4371 19.9702 22.4422 19.9765V19.9765C22.4484 19.9839 22.5004 19.9773 22.5131 19.9773V19.9773H22.61H22.9975H23.7678H24.5428H25.3153C25.7755 19.9773 26.2137 19.8543 26.5867 19.5668V19.5668C27.0925 19.177 27.3913 18.5571 27.3938 17.9066V17.9066C27.3939 17.8815 27.394 17.8563 27.394 17.8311V17.8311V17.7943C27.3939 17.7386 27.3938 17.6828 27.3938 17.6271V17.6271V16.9414C27.3938 16.6094 27.3938 16.2774 27.3938 15.9455V15.9455C27.3938 15.5377 27.3938 15.1299 27.3938 14.7221V14.7221C27.3938 14.2722 27.3938 13.8221 27.3938 13.3722V13.3722C27.3938 12.9065 27.3938 12.4409 27.3938 11.9753V11.9753C27.3938 11.5262 27.3938 11.0772 27.3938 10.6282V10.6282C27.3938 10.2278 27.3938 9.82743 27.3938 9.42702V9.42702C27.3938 9.10221 27.3938 8.7774 27.3938 8.45259V8.45259V7.80372C27.3938 7.72451 27.3938 7.64529 27.3938 7.56601V7.56601H27.3859C27.1397 7.56642 26.8934 7.56601 26.6471 7.56601V7.56601H25.8747H25.0996C24.9466 7.56601 24.7909 7.56041 24.6358 7.56V7.56H24.6026ZM23.4112 12.4113C23.4049 12.4256 23.4112 12.4572 23.4112 12.4726V12.4726V13.0232V13.2806C23.4112 13.3021 23.4012 13.3759 23.4164 13.3868V13.3868C23.4294 13.3962 23.4857 13.3868 23.5025 13.3868V13.3868H23.5955H23.7744H24.1299C24.2467 13.3868 24.3636 13.389 24.4803 13.3868V13.3868C24.6249 13.3842 24.7649 13.3412 24.8677 13.2357V13.2357C24.984 13.1164 25.0255 12.9409 24.9902 12.7799V12.7799C24.974 12.7086 24.943 12.6418 24.8971 12.5847V12.5847C24.8091 12.4753 24.678 12.4146 24.5392 12.4034V12.4034C24.4732 12.3981 24.4066 12.4006 24.3405 12.4006V12.4006H23.9851H23.6226H23.4462C23.4367 12.4006 23.4303 12.3997 23.4257 12.3997V12.3997C23.4186 12.3997 23.4155 12.4017 23.4112 12.4113V12.4113ZM24.1749 14.0329H23.411C23.411 14.043 23.411 14.0532 23.411 14.0633V14.0633V14.614V14.9392V15.058C23.411 15.0749 23.4042 15.1107 23.411 15.1263V15.1263C23.4213 15.1498 23.5162 15.1365 23.5466 15.1365V15.1365H23.7399H24.1219H24.506C24.6308 15.1365 24.7505 15.1286 24.8612 15.0604V15.0604C24.9956 14.9777 25.0872 14.8331 25.1102 14.672V14.672C25.1365 14.4879 25.0767 14.2973 24.9433 14.1723V14.1723C24.8353 14.0712 24.7014 14.034 24.559 14.0329V14.0329C24.5163 14.0325 24.4736 14.0324 24.4309 14.0324V14.0324C24.3456 14.0324 24.2602 14.0329 24.1749 14.0329V14.0329Z" fill="url(#paint0_linear_2748_48643)"/>
<mask id="mask0_2748_48643" style="mask-type:alpha" maskUnits="userSpaceOnUse" x="22" y="7" width="6" height="13">
<path fill-rule="evenodd" clip-rule="evenodd" d="M24.6026 7.56C24.4767 7.56035 24.3513 7.56461 24.2278 7.57862V7.57862C23.7446 7.63332 23.29 7.87354 22.9635 8.24418V8.24418C22.7214 8.51914 22.5532 8.85965 22.4819 9.22375V9.22375C22.4467 9.4035 22.4422 9.58371 22.4422 9.76585V9.76585V10.9748V11.5609V11.7331C22.4422 11.7792 22.4315 11.7828 22.4809 11.7828V11.7828H23.254H24.0243H24.7993C25.0523 11.7828 25.3074 11.773 25.5596 11.7966V11.7966C25.8082 11.8199 26.0612 11.8928 26.2622 12.0502V12.0502C26.5448 12.2716 26.6597 12.6534 26.5631 13.0047V13.0047C26.4704 13.3419 26.1924 13.568 25.8747 13.6618V13.6618C25.8395 13.6722 25.8039 13.6812 25.768 13.6887V13.6887C25.7473 13.6932 25.7192 13.6924 25.7003 13.7014V13.7014C25.691 13.7059 25.6673 13.7114 25.6847 13.7284V13.7284C25.689 13.7327 25.7074 13.7326 25.721 13.7325V13.7325C25.7265 13.7325 25.7313 13.7325 25.734 13.7327V13.7327C25.8337 13.7426 25.9329 13.7604 26.0297 13.7876V13.7876C26.3256 13.8707 26.6128 14.0495 26.7499 14.3429V14.3429C26.9121 14.6901 26.8294 15.1202 26.5673 15.3895V15.3895C26.3608 15.6017 26.0727 15.71 25.7874 15.7459V15.7459C25.6444 15.7638 25.5003 15.7602 25.3565 15.7602V15.7602H24.5815H23.8066H23.0362H22.6487H22.5519C22.5298 15.7602 22.4673 15.7489 22.4492 15.7602V15.7602C22.4386 15.7668 22.4422 15.7764 22.4422 15.794V15.794V16.5318V17.8338V19.1494V19.9282C22.4422 19.936 22.4371 19.9702 22.4422 19.9765V19.9765C22.4484 19.9839 22.5004 19.9773 22.5131 19.9773V19.9773H22.61H22.9975H23.7678H24.5428H25.3153C25.7755 19.9773 26.2137 19.8543 26.5867 19.5668V19.5668C27.0925 19.177 27.3913 18.5571 27.3938 17.9066V17.9066C27.3939 17.8815 27.394 17.8563 27.394 17.8311V17.8311V17.7943C27.3939 17.7386 27.3938 17.6828 27.3938 17.6271V17.6271V16.9414C27.3938 16.6094 27.3938 16.2774 27.3938 15.9455V15.9455C27.3938 15.5377 27.3938 15.1299 27.3938 14.7221V14.7221C27.3938 14.2722 27.3938 13.8221 27.3938 13.3722V13.3722C27.3938 12.9065 27.3938 12.4409 27.3938 11.9753V11.9753C27.3938 11.5262 27.3938 11.0772 27.3938 10.6282V10.6282C27.3938 10.2278 27.3938 9.82743 27.3938 9.42702V9.42702C27.3938 9.10221 27.3938 8.7774 27.3938 8.45259V8.45259V7.80372C27.3938 7.72451 27.3938 7.64529 27.3938 7.56601V7.56601H27.3859C27.1397 7.56642 26.8934 7.56601 26.6471 7.56601V7.56601H25.8747H25.0996C24.9466 7.56601 24.7909 7.56041 24.6358 7.56V7.56H24.6026ZM23.4112 12.4113C23.4049 12.4256 23.4112 12.4572 23.4112 12.4726V12.4726V13.0232V13.2806C23.4112 13.3021 23.4012 13.3759 23.4164 13.3868V13.3868C23.4294 13.3962 23.4857 13.3868 23.5025 13.3868V13.3868H23.5955H23.7744H24.1299C24.2467 13.3868 24.3636 13.389 24.4803 13.3868V13.3868C24.6249 13.3842 24.7649 13.3412 24.8677 13.2357V13.2357C24.984 13.1164 25.0255 12.9409 24.9902 12.7799V12.7799C24.974 12.7086 24.943 12.6418 24.8971 12.5847V12.5847C24.8091 12.4753 24.678 12.4146 24.5392 12.4034V12.4034C24.4732 12.3981 24.4066 12.4006 24.3405 12.4006V12.4006H23.9851H23.6226H23.4462C23.4367 12.4006 23.4303 12.3997 23.4257 12.3997V12.3997C23.4186 12.3997 23.4155 12.4017 23.4112 12.4113V12.4113ZM24.1749 14.0329H23.411C23.411 14.043 23.411 14.0532 23.411 14.0633V14.0633V14.614V14.9392V15.058C23.411 15.0749 23.4042 15.1107 23.411 15.1263V15.1263C23.4213 15.1498 23.5162 15.1365 23.5466 15.1365V15.1365H23.7399H24.1219H24.506C24.6308 15.1365 24.7505 15.1286 24.8612 15.0604V15.0604C24.9956 14.9777 25.0872 14.8331 25.1102 14.672V14.672C25.1365 14.4879 25.0767 14.2973 24.9433 14.1723V14.1723C24.8353 14.0712 24.7014 14.034 24.559 14.0329V14.0329C24.5163 14.0325 24.4736 14.0324 24.4309 14.0324V14.0324C24.3456 14.0324 24.2602 14.0329 24.1749 14.0329V14.0329Z" fill="white"/>
</mask>
<g mask="url(#mask0_2748_48643)">
</g>
<path fill-rule="evenodd" clip-rule="evenodd" d="M12.8673 7.58762C12.579 7.63533 12.3022 7.74845 12.0603 7.91518V7.91518C11.5031 8.29944 11.1696 8.95005 11.1672 9.63471V9.63471C11.1665 9.83601 11.1672 10.0373 11.1672 10.2387V10.2387V11.5208V13.0115V14.2411V14.6121V14.7101C11.1672 14.7481 11.1668 14.7401 11.2092 14.7606V14.7606C11.2563 14.7834 11.3036 14.8055 11.3512 14.8271V14.8271C11.731 14.9986 12.1315 15.1291 12.5448 15.1805V15.1805C12.8419 15.2175 13.1592 15.2278 13.4398 15.1069V15.1069C13.6646 15.0102 13.8438 14.8316 13.9358 14.6V14.6C13.995 14.4512 14.012 14.294 14.012 14.1348V14.1348V12.3701V11.9729V11.8461C14.012 11.8335 14.0049 11.7939 14.012 11.7833V11.7833C14.0208 11.77 14.0902 11.7785 14.1102 11.7785V11.7785H14.2616H14.5602H15.7585V11.8149V13.557C15.7585 13.7615 15.7589 13.9661 15.7585 14.1706V14.1706C15.7581 14.4088 15.7238 14.648 15.6282 14.867V14.867C15.5329 15.0853 15.38 15.2696 15.1911 15.4099V15.4099C14.7328 15.7504 14.1256 15.8391 13.5718 15.8646V15.8646C13.1755 15.8829 12.7777 15.8671 12.3832 15.8269V15.8269C11.9756 15.7855 11.5631 15.7238 11.1672 15.615V15.615V15.7563V16.7249V18.1381V19.4148V19.821V19.9349C11.1672 19.941 11.1628 19.971 11.1672 19.9759V19.9759C11.1754 19.9851 11.2505 19.9759 11.2653 19.9759V19.9759H11.3657H11.5712H11.9774H12.7916H13.6061C13.9515 19.9759 14.3057 20.0002 14.6432 19.9132V19.9132C15.2334 19.7613 15.7349 19.336 15.9902 18.7728V18.7728C16.1303 18.4638 16.1762 18.1352 16.1762 17.7987V17.7987V17.2441V16.3097V15.0988V13.7206V12.2669V10.8462V9.56656V8.52077V7.81753V7.56017H15.9738H15.1277H14.2812H13.4373C13.3997 7.56017 13.3622 7.56 13.3246 7.56V7.56C13.1716 7.56 13.0191 7.56251 12.8673 7.58762" fill="url(#paint1_linear_2748_48643)"/>
<mask id="mask1_2748_48643" style="mask-type:alpha" maskUnits="userSpaceOnUse" x="11" y="7" width="6" height="13">
<path fill-rule="evenodd" clip-rule="evenodd" d="M12.8673 7.58762C12.579 7.63533 12.3022 7.74845 12.0603 7.91518V7.91518C11.5031 8.29944 11.1696 8.95005 11.1672 9.63471V9.63471C11.1665 9.83601 11.1672 10.0373 11.1672 10.2387V10.2387V11.5208V13.0115V14.2411V14.6121V14.7101C11.1672 14.7481 11.1668 14.7401 11.2092 14.7606V14.7606C11.2563 14.7834 11.3036 14.8055 11.3512 14.8271V14.8271C11.731 14.9986 12.1315 15.1291 12.5448 15.1805V15.1805C12.8419 15.2175 13.1592 15.2278 13.4398 15.1069V15.1069C13.6646 15.0102 13.8438 14.8316 13.9358 14.6V14.6C13.995 14.4512 14.012 14.294 14.012 14.1348V14.1348V12.3701V11.9729V11.8461C14.012 11.8335 14.0049 11.7939 14.012 11.7833V11.7833C14.0208 11.77 14.0902 11.7785 14.1102 11.7785V11.7785H14.2616H14.5602H15.7585V11.8149V13.557C15.7585 13.7615 15.7589 13.9661 15.7585 14.1706V14.1706C15.7581 14.4088 15.7238 14.648 15.6282 14.867V14.867C15.5329 15.0853 15.38 15.2696 15.1911 15.4099V15.4099C14.7328 15.7504 14.1256 15.8391 13.5718 15.8646V15.8646C13.1755 15.8829 12.7777 15.8671 12.3832 15.8269V15.8269C11.9756 15.7855 11.5631 15.7238 11.1672 15.615V15.615V15.7563V16.7249V18.1381V19.4148V19.821V19.9349C11.1672 19.941 11.1628 19.971 11.1672 19.9759V19.9759C11.1754 19.9851 11.2505 19.9759 11.2653 19.9759V19.9759H11.3657H11.5712H11.9774H12.7916H13.6061C13.9515 19.9759 14.3057 20.0002 14.6432 19.9132V19.9132C15.2334 19.7613 15.7349 19.336 15.9902 18.7728V18.7728C16.1303 18.4638 16.1762 18.1352 16.1762 17.7987V17.7987V17.2441V16.3097V15.0988V13.7206V12.2669V10.8462V9.56656V8.52077V7.81753V7.56017H15.9738H15.1277H14.2812H13.4373C13.3997 7.56017 13.3622 7.56 13.3246 7.56V7.56C13.1716 7.56 13.0191 7.56251 12.8673 7.58762" fill="white"/>
</mask>
<g mask="url(#mask1_2748_48643)">
</g>
<path fill-rule="evenodd" clip-rule="evenodd" d="M18.6843 7.56511C18.4672 7.57923 18.2523 7.6295 18.051 7.71447V7.71447C17.6073 7.902 17.2383 8.25202 17.021 8.69119V8.69119C16.8786 8.97874 16.8067 9.29837 16.8054 9.62056V9.62056C16.8051 9.67269 16.8054 9.72481 16.8054 9.777V9.777V10.6911V12.3162C16.8189 12.3043 16.8328 12.2925 16.8469 12.2808V12.2808C16.8966 12.2395 16.9483 12.2009 17.0016 12.1648V12.1648C17.3334 11.9398 17.7206 11.8138 18.1091 11.7395V11.7395C18.4253 11.6789 18.7473 11.6529 19.0686 11.6465V11.6465C19.3848 11.6404 19.7019 11.6514 20.0163 11.6863V11.6863C20.3372 11.7219 20.6561 11.7774 20.9716 11.8468V11.8468C21.0103 11.8553 21.049 11.8641 21.0876 11.8731V11.8731C21.1083 11.878 21.1876 11.8846 21.1986 11.9009V11.9009C21.2064 11.9125 21.1986 11.9589 21.1986 11.9723V11.9723V12.1399V12.7718C21.1538 12.7486 21.1087 12.7259 21.0633 12.7039V12.7039C20.72 12.5374 20.3582 12.4138 19.9827 12.353V12.353C19.4782 12.2712 18.9072 12.2735 18.4715 12.5832V12.5832C18.051 12.8821 17.9039 13.4126 17.9493 13.917V13.917C17.9935 14.4079 18.2581 14.8288 18.7036 15.025V15.025C19.1438 15.2189 19.6546 15.1928 20.1155 15.0993V15.0993C20.4937 15.0226 20.8543 14.8821 21.1986 14.7059V14.7059V14.7683V15.5047C21.1986 15.5185 21.2066 15.565 21.1986 15.5768V15.5768C21.1878 15.5926 21.1074 15.5994 21.0876 15.604V15.604C21.0072 15.6228 20.9264 15.6405 20.8455 15.6572V15.6572C20.5277 15.7228 20.2065 15.7749 19.8835 15.8045V15.8045C19.5673 15.8336 19.2479 15.8393 18.9307 15.827V15.827C18.6069 15.8146 18.2828 15.7803 17.9662 15.7083V15.7083C17.5488 15.6135 17.1333 15.4504 16.8054 15.1618V15.1618V15.2974V16.2458V17.6609V19.0386V19.8555C16.8054 19.8651 16.7991 19.9055 16.8054 19.9132V19.9132C16.8189 19.9301 16.9315 19.9163 16.9579 19.9163V19.9163H17.3691H18.1958H19.0181C19.3083 19.9163 19.6036 19.9321 19.8932 19.9109V19.9109C20.4182 19.8725 20.9154 19.6179 21.2616 19.2109V19.2109C21.5931 18.8211 21.7566 18.3278 21.7566 17.8136V17.8136V17.3524V16.4708V15.2801V13.8906V12.4186V10.9624V9.64287V8.5598V7.82901V7.56093H21.6048H20.3283H19.0568C18.9967 7.56093 18.9364 7.56 18.8761 7.56V7.56C18.8121 7.56 18.7481 7.56104 18.6843 7.56511" fill="url(#paint2_linear_2748_48643)"/>
<mask id="mask2_2748_48643" style="mask-type:alpha" maskUnits="userSpaceOnUse" x="16" y="7" width="6" height="13">
<path fill-rule="evenodd" clip-rule="evenodd" d="M18.6843 7.56511C18.4672 7.57923 18.2523 7.6295 18.051 7.71447V7.71447C17.6073 7.902 17.2383 8.25202 17.021 8.69119V8.69119C16.8786 8.97874 16.8067 9.29837 16.8054 9.62056V9.62056C16.8051 9.67269 16.8054 9.72481 16.8054 9.777V9.777V10.6911V12.3162C16.8189 12.3043 16.8328 12.2925 16.8469 12.2808V12.2808C16.8966 12.2395 16.9483 12.2009 17.0016 12.1648V12.1648C17.3334 11.9398 17.7206 11.8138 18.1091 11.7395V11.7395C18.4253 11.6789 18.7473 11.6529 19.0686 11.6465V11.6465C19.3848 11.6404 19.7019 11.6514 20.0163 11.6863V11.6863C20.3372 11.7219 20.6561 11.7774 20.9716 11.8468V11.8468C21.0103 11.8553 21.049 11.8641 21.0876 11.8731V11.8731C21.1083 11.878 21.1876 11.8846 21.1986 11.9009V11.9009C21.2064 11.9125 21.1986 11.9589 21.1986 11.9723V11.9723V12.1399V12.7718C21.1538 12.7486 21.1087 12.7259 21.0633 12.7039V12.7039C20.72 12.5374 20.3582 12.4138 19.9827 12.353V12.353C19.4782 12.2712 18.9072 12.2735 18.4715 12.5832V12.5832C18.051 12.8821 17.9039 13.4126 17.9493 13.917V13.917C17.9935 14.4079 18.2581 14.8288 18.7036 15.025V15.025C19.1438 15.2189 19.6546 15.1928 20.1155 15.0993V15.0993C20.4937 15.0226 20.8543 14.8821 21.1986 14.7059V14.7059V14.7683V15.5047C21.1986 15.5185 21.2066 15.565 21.1986 15.5768V15.5768C21.1878 15.5926 21.1074 15.5994 21.0876 15.604V15.604C21.0072 15.6228 20.9264 15.6405 20.8455 15.6572V15.6572C20.5277 15.7228 20.2065 15.7749 19.8835 15.8045V15.8045C19.5673 15.8336 19.2479 15.8393 18.9307 15.827V15.827C18.6069 15.8146 18.2828 15.7803 17.9662 15.7083V15.7083C17.5488 15.6135 17.1333 15.4504 16.8054 15.1618V15.1618V15.2974V16.2458V17.6609V19.0386V19.8555C16.8054 19.8651 16.7991 19.9055 16.8054 19.9132V19.9132C16.8189 19.9301 16.9315 19.9163 16.9579 19.9163V19.9163H17.3691H18.1958H19.0181C19.3083 19.9163 19.6036 19.9321 19.8932 19.9109V19.9109C20.4182 19.8725 20.9154 19.6179 21.2616 19.2109V19.2109C21.5931 18.8211 21.7566 18.3278 21.7566 17.8136V17.8136V17.3524V16.4708V15.2801V13.8906V12.4186V10.9624V9.64287V8.5598V7.82901V7.56093H21.6048H20.3283H19.0568C18.9967 7.56093 18.9364 7.56 18.8761 7.56V7.56C18.8121 7.56 18.7481 7.56104 18.6843 7.56511" fill="white"/>
</mask>
<g mask="url(#mask2_2748_48643)">
</g>
<defs>
<linearGradient id="paint0_linear_2748_48643" x1="27.394" y1="7.02285" x2="22.6074" y2="7.02285" gradientUnits="userSpaceOnUse">
<stop stop-color="#43C311"/>
<stop offset="1" stop-color="#288C00"/>
</linearGradient>
<linearGradient id="paint1_linear_2748_48643" x1="11.1781" y1="20.011" x2="16.2392" y2="20.011" gradientUnits="userSpaceOnUse">
<stop stop-color="#21469E"/>
<stop offset="1" stop-color="#1E81EB"/>
</linearGradient>
<linearGradient id="paint2_linear_2748_48643" x1="21.7566" y1="7.56" x2="16.8026" y2="7.56" gradientUnits="userSpaceOnUse">
<stop stop-color="#F42D3E"/>
<stop offset="1" stop-color="#9C0017"/>
</linearGradient>
</defs>
</svg>
