<svg width="48" height="48" viewBox="0 0 48 48" fill="none" xmlns="http://www.w3.org/2000/svg">
<g clip-path="url(#clip0_0_865)">
<path d="M10.3125 11.8135C9.795 11.8135 9.375 12.2335 9.375 12.751C9.375 13.2685 9.795 13.6885 10.3125 13.6885C10.83 13.6885 11.25 13.2685 11.25 12.751C11.25 12.2335 10.83 11.8135 10.3125 11.8135Z" fill="#000034"/>
<path d="M44.1492 19.8312L42.7927 17.1181C42.3131 16.1589 41.3493 15.5631 40.2772 15.5631H32.4362V9.00088C32.4362 7.45016 31.1746 6.18848 29.6238 6.18848H2.81241C1.26159 6.18848 0 7.45007 0 9.00088V33.3748C0 34.9256 1.26159 36.1873 2.81241 36.1873H5.62481C5.62481 37.6267 6.16903 38.9412 7.06162 39.9371H0.9375C0.419719 39.9371 0 40.3569 0 40.8746C0 41.3923 0.419719 41.8121 0.9375 41.8121H47.0606C47.5784 41.8121 47.9981 41.3923 47.9981 40.8746C47.9981 40.3569 47.5784 39.9371 47.0606 39.9371H44.6863C45.579 38.9411 46.1231 37.6267 46.1231 36.1873C46.1231 36.1338 46.1206 36.0807 46.1191 36.0273C47.2123 35.6414 47.998 34.5985 47.998 33.3748V28.1925C47.998 27.0986 48.2147 28.1199 44.1492 19.8312ZM42.7313 21.1878L45.5437 26.8126H36.186V21.1878H42.7313ZM1.87491 28.6875H3.74981V30.5624H1.87491V28.6875ZM11.2495 39.9371C9.18188 39.9371 7.49972 38.2548 7.49972 36.1873C7.49972 35.9319 7.52503 35.6805 7.57566 35.4361C7.92825 33.6986 9.47334 32.4373 11.2495 32.4373C13.0257 32.4373 14.5709 33.6985 14.9234 35.4361C14.9237 35.4375 14.924 35.4388 14.9242 35.4401C14.9741 35.6804 14.9993 35.9319 14.9993 36.1873C14.9993 38.2549 13.3172 39.9371 11.2495 39.9371ZM11.2495 30.5624C8.84756 30.5624 6.72778 32.1012 5.94628 34.3123H2.81241C2.29547 34.3123 1.87491 33.8917 1.87491 33.3748V32.4373H4.68731C5.20509 32.4373 5.62481 32.0174 5.62481 31.4998V27.7499C5.62481 27.2323 5.20509 26.8124 4.68731 26.8124H1.87491V9.00088C1.87491 8.48395 2.29547 8.06338 2.81241 8.06338H29.6238C30.1407 8.06338 30.5613 8.48395 30.5613 9.00088C30.5613 9.69829 30.5613 32.0641 30.5613 34.3123H16.5523C15.7694 32.1 13.6505 30.5624 11.2495 30.5624ZM15.4374 39.9371C16.3301 38.9411 16.8743 37.6267 16.8743 36.1873C17.5941 36.1873 34.567 36.1873 34.8735 36.1873C34.8735 37.6267 35.4177 38.9412 36.3103 39.9371H15.4374ZM40.4983 39.9371C38.4307 39.9371 36.7485 38.2548 36.7485 36.1873C36.7485 35.9319 36.7738 35.6805 36.8244 35.4361C37.177 33.6986 38.7221 32.4373 40.4983 32.4373C42.2745 32.4373 43.8197 33.6985 44.1722 35.4361C44.1725 35.4375 44.1727 35.4388 44.173 35.4401C44.2229 35.6804 44.2481 35.9319 44.2481 36.1873C44.2482 38.2549 42.566 39.9371 40.4983 39.9371ZM46.1231 33.3748C46.1231 33.6867 45.9695 33.9626 45.7346 34.1332C44.903 32.0173 42.8339 30.5625 40.4983 30.5625C38.0963 30.5625 35.9766 32.1013 35.1951 34.3123H32.4361V17.438H40.2771C40.6344 17.438 40.9557 17.6368 41.1157 17.9565L41.7938 19.3129H35.2486C34.7308 19.3129 34.3111 19.7327 34.3111 20.2504V27.7501C34.3111 28.2678 34.7308 28.6876 35.2486 28.6876H46.1231V33.3748Z" fill="#000034"/>
<path d="M25.8736 11.8135H14.0615C13.5437 11.8135 13.124 12.2333 13.124 12.751C13.124 13.2687 13.5437 13.6885 14.0615 13.6885H25.8736C26.3913 13.6885 26.8111 13.2687 26.8111 12.751C26.8111 12.2333 26.3912 11.8135 25.8736 11.8135Z" fill="#000034"/>
<path d="M25.8737 15.5625H17.8115C17.2937 15.5625 16.874 15.9823 16.874 16.5C16.874 17.0177 17.2937 17.4375 17.8115 17.4375H25.8737C26.3915 17.4375 26.8112 17.0177 26.8112 16.5C26.8112 15.9823 26.3914 15.5625 25.8737 15.5625Z" fill="#000034"/>
<path d="M40.498 34.3125C39.4641 34.3125 38.623 35.1536 38.623 36.1874C38.623 37.2213 39.4642 38.0623 40.498 38.0623C41.5318 38.0623 42.3729 37.2212 42.3729 36.1874C42.3729 35.1535 41.5318 34.3125 40.498 34.3125Z" fill="#000034"/>
<path d="M11.2499 34.3125C10.216 34.3125 9.375 35.1536 9.375 36.1874C9.375 37.2213 10.2161 38.0623 11.2499 38.0623C12.2838 38.0623 13.1248 37.2212 13.1248 36.1874C13.1248 35.1535 12.2838 34.3125 11.2499 34.3125Z" fill="#000034"/>
</g>
<defs>
<clipPath id="clip0_0_865">
<rect width="48" height="48" fill="white"/>
</clipPath>
</defs>
</svg>
