<svg width="20" height="10" viewBox="0 0 20 10" fill="none" xmlns="http://www.w3.org/2000/svg">
<path d="M1.25838 0.0656921C1.42253 0.065472 1.5851 0.0977595 1.73671 0.160692C1.88832 0.223624 2.02597 0.315955 2.14171 0.432358L8.53588 6.82568C8.72934 7.0192 8.95903 7.1727 9.21183 7.27743C9.46463 7.38217 9.73558 7.43607 10.0092 7.43607C10.2828 7.43607 10.5538 7.38217 10.8066 7.27743C11.0594 7.1727 11.2891 7.0192 11.4825 6.82568L17.8667 0.440691C17.982 0.321304 18.12 0.226076 18.2725 0.160565C18.425 0.0950539 18.589 0.0605715 18.755 0.0591292C18.9209 0.057687 19.0855 0.0893138 19.2392 0.152165C19.3928 0.215016 19.5323 0.307832 19.6497 0.425198C19.7671 0.542564 19.8599 0.682128 19.9227 0.835748C19.9856 0.989369 20.0172 1.15397 20.0158 1.31994C20.0143 1.48592 19.9799 1.64994 19.9143 1.80245C19.8488 1.95495 19.7536 2.09288 19.6342 2.20819L13.25 8.59318C12.39 9.45166 11.2244 9.93381 10.0092 9.93381C8.79401 9.93381 7.62846 9.45166 6.76838 8.59318L0.374213 2.19986C0.199283 2.02504 0.0801409 1.80226 0.0318625 1.55971C-0.016416 1.31716 0.00833916 1.06574 0.102995 0.83726C0.197652 0.608783 0.357955 0.413518 0.56362 0.276174C0.769286 0.13883 1.01107 0.06558 1.25838 0.0656921Z" fill="#D6D8EA"/>
</svg>
